<svg width="22" height="21" viewBox="0 0 22 21" fill="none" xmlns="http://www.w3.org/2000/svg">
<path d="M10.7725 14.6777C10.7944 14.7057 10.8224 14.7284 10.8544 14.744C10.8864 14.7596 10.9215 14.7677 10.957 14.7677C10.9926 14.7677 11.0277 14.7596 11.0597 14.744C11.0917 14.7284 11.1197 14.7057 11.1416 14.6777L14.4229 10.5264C14.543 10.374 14.4346 10.1484 14.2383 10.1484H12.0674V0.234375C12.0674 0.105469 11.9619 0 11.833 0H10.0752C9.94629 0 9.84082 0.105469 9.84082 0.234375V10.1455H7.67578C7.47949 10.1455 7.37109 10.3711 7.49121 10.5234L10.7725 14.6777ZM21.6797 13.6523H19.9219C19.793 13.6523 19.6875 13.7578 19.6875 13.8867V18.3984H2.22656V13.8867C2.22656 13.7578 2.12109 13.6523 1.99219 13.6523H0.234375C0.105469 13.6523 0 13.7578 0 13.8867V19.6875C0 20.2061 0.418945 20.625 0.9375 20.625H20.9766C21.4951 20.625 21.9141 20.2061 21.9141 19.6875V13.8867C21.9141 13.7578 21.8086 13.6523 21.6797 13.6523Z" fill="white"/>
</svg>
